<?xml version="1.0" standalone="no"?>
<!DOCTYPE svg PUBLIC "-//W3C//DTD SVG 20010904//EN"
 "http://www.w3.org/TR/2001/REC-SVG-20010904/DTD/svg10.dtd">
<svg version="1.0" xmlns="http://www.w3.org/2000/svg"
 width="976.000000pt" height="976.000000pt" viewBox="0 0 976.000000 976.000000"
 preserveAspectRatio="xMidYMid meet">
<metadata>
Created by potrace 1.11, written by Peter Selinger 2001-2013
</metadata>
<g transform="translate(0.000000,976.000000) scale(0.100000,-0.100000)"
fill="#000000" stroke="none">
<path d="M4559 9756 c-2 -2 -40 -6 -84 -10 -136 -12 -380 -51 -505 -82 -36 -8
-76 -18 -90 -20 -14 -3 -50 -12 -80 -21 -30 -9 -57 -16 -60 -15 -3 0 -12 -4
-21 -9 -9 -4 -27 -10 -40 -13 -28 -5 -269 -90 -319 -112 -19 -9 -48 -22 -65
-29 -16 -8 -33 -11 -37 -9 -4 3 -8 2 -8 -3 0 -4 -15 -14 -32 -22 -74 -31 -250
-119 -348 -175 -99 -55 -259 -154 -270 -166 -3 -3 -13 -9 -22 -15 -74 -44
-311 -226 -418 -320 -70 -62 -328 -322 -380 -385 -30 -36 -58 -67 -61 -70 -13
-11 -148 -189 -179 -235 -19 -27 -36 -52 -39 -55 -12 -10 -84 -125 -82 -129 2
-2 -1 -7 -7 -10 -11 -7 -105 -164 -124 -206 -7 -16 -16 -32 -19 -35 -10 -7
-169 -341 -175 -365 -1 -5 -18 -48 -37 -95 -19 -47 -45 -119 -58 -160 -13 -41
-26 -77 -29 -80 -3 -3 -6 -9 -7 -15 0 -5 -17 -70 -37 -143 -36 -134 -83 -348
-92 -425 -3 -23 -7 -52 -10 -65 -15 -73 -19 -180 -19 -572 0 -413 6 -544 25
-595 5 -13 6 -25 3 -28 -3 -3 0 -28 6 -54 6 -26 13 -59 15 -73 29 -160 113
-478 148 -555 4 -11 10 -29 12 -40 2 -11 11 -36 19 -55 8 -19 37 -87 63 -150
45 -109 145 -317 194 -405 56 -100 105 -180 112 -183 5 -2 8 -8 8 -14 0 -9
102 -164 147 -223 13 -16 27 -34 31 -40 4 -5 18 -26 32 -45 13 -19 27 -37 30
-40 3 -3 32 -39 65 -80 131 -162 347 -362 460 -425 71 -40 94 -41 110 -2 13
31 31 125 27 139 -1 5 1 8 5 8 5 0 8 17 8 38 0 20 4 62 8 92 10 80 22 235 32
420 4 58 8 137 10 175 4 74 14 355 21 620 2 88 4 165 5 170 0 6 -2 34 -3 63
-2 28 -1 52 3 52 4 0 3 16 -1 35 -4 19 -4 35 1 35 5 0 4 11 -1 24 -5 13 -7 26
-5 28 3 3 4 26 5 133 0 11 0 31 -1 45 0 14 -1 30 -1 35 9 539 13 679 27 940 7
128 19 269 30 365 3 25 7 68 10 95 3 28 7 59 9 71 2 12 7 45 11 74 4 29 9 62
11 74 3 12 7 39 10 61 3 22 8 47 10 55 3 8 8 26 10 39 3 13 12 51 20 85 8 34
17 75 20 91 3 17 10 34 15 40 5 5 9 17 9 27 0 42 141 377 162 386 4 2 8 8 8
14 0 10 66 116 79 128 3 3 29 34 56 70 118 153 340 337 555 457 19 11 59 34
88 51 28 17 52 28 52 24 0 -4 4 -2 8 3 18 25 418 207 486 221 11 2 47 12 80
23 53 18 91 28 171 46 105 24 192 39 233 39 17 1 32 3 32 6 0 9 101 14 300 14
255 1 408 -15 594 -63 22 -5 44 -8 48 -5 4 3 8 0 8 -5 0 -6 8 -11 19 -11 48 0
308 -97 446 -167 191 -97 222 -117 401 -250 106 -79 273 -233 349 -324 72 -86
139 -174 179 -234 25 -38 50 -75 55 -81 5 -6 26 -42 46 -80 20 -38 45 -84 56
-101 10 -18 16 -33 13 -33 -3 0 4 -13 15 -29 12 -16 21 -34 21 -39 0 -6 13
-39 28 -74 16 -34 30 -67 32 -73 1 -5 4 -14 6 -20 34 -103 46 -143 64 -211 11
-45 23 -92 25 -105 9 -44 16 -84 20 -109 2 -14 6 -38 8 -55 12 -69 17 -127 22
-249 3 -70 8 -132 11 -137 3 -5 2 -9 -3 -9 -4 0 -8 -44 -9 -98 -1 -108 -14
-265 -29 -342 -3 -14 -8 -43 -11 -65 -3 -22 -10 -58 -15 -80 -6 -22 -11 -51
-13 -65 -2 -14 -11 -51 -20 -82 -9 -32 -17 -61 -17 -65 -3 -20 -85 -244 -107
-293 -15 -30 -26 -57 -27 -60 -3 -19 -113 -220 -133 -242 -8 -10 -11 -18 -6
-18 5 0 5 -4 -1 -8 -12 -8 -55 -69 -55 -77 0 -6 -85 -116 -130 -169 -89 -105
-198 -216 -277 -282 -25 -21 -52 -45 -59 -51 -7 -7 -15 -13 -18 -13 -4 0 -20
-12 -37 -27 -17 -15 -69 -54 -117 -85 -48 -32 -94 -63 -102 -68 -62 -42 -341
-178 -455 -223 -49 -19 -157 -56 -240 -81 -350 -109 -454 -138 -464 -132 -8 5
-14 28 -27 101 -11 65 -24 255 -28 437 -3 81 -7 152 -11 158 -3 5 -1 10 5 10
6 0 9 4 6 9 -11 17 -4 411 9 526 14 134 65 349 85 365 4 3 19 29 35 58 15 28
32 52 37 52 4 0 8 5 8 11 0 6 6 16 13 23 6 7 33 35 58 62 39 42 117 112 183
164 45 36 160 156 199 208 23 31 46 60 50 63 5 3 8 9 8 13 -1 3 6 20 15 37 70
136 92 279 63 419 -13 61 -58 182 -72 191 -5 3 -9 10 -9 15 -1 13 -45 82 -97
149 -54 70 -181 197 -255 254 -65 50 -182 121 -199 121 -7 0 -17 4 -22 8 -37
32 -221 48 -314 28 -155 -33 -409 -222 -540 -401 -41 -57 -82 -137 -96 -187
-2 -5 -3 -9 -5 -10 -1 -2 -3 -11 -5 -20 -2 -9 -8 -32 -14 -50 -25 -76 -54
-297 -66 -488 -2 -41 -7 -113 -9 -160 -11 -169 -29 -949 -26 -1075 0 -5 1 -48
3 -95 2 -47 -1 -93 -5 -102 -5 -10 -5 -18 -1 -18 5 0 8 -12 7 -28 -1 -15 -3
-27 -4 -27 -1 0 -2 -17 -3 -38 -1 -20 1 -37 4 -37 4 0 4 -15 0 -32 -4 -18 -4
-44 -1 -58 4 -14 3 -35 -1 -48 -5 -13 -5 -22 1 -22 6 0 6 -9 0 -24 -5 -13 -6
-27 -3 -30 9 -9 10 -59 1 -78 -5 -9 -4 -20 2 -23 6 -4 7 -13 1 -24 -6 -10 -6
-23 -1 -31 5 -8 5 -21 1 -29 -9 -16 -7 -49 3 -58 3 -3 1 -14 -4 -24 -7 -12 -7
-20 0 -24 7 -4 7 -12 0 -25 -6 -11 -6 -21 -1 -25 6 -3 6 -17 1 -35 -5 -18 -5
-32 1 -35 5 -4 5 -14 -1 -25 -7 -13 -7 -21 0 -25 6 -4 7 -13 1 -23 -6 -11 -6
-24 0 -34 6 -10 5 -26 -1 -42 -5 -15 -6 -26 0 -26 5 0 5 -12 0 -30 -5 -18 -5
-30 0 -30 6 0 5 -11 0 -26 -7 -16 -7 -32 0 -43 5 -10 6 -21 3 -25 -8 -7 -7
-116 1 -124 3 -2 1 -13 -4 -23 -7 -11 -7 -20 0 -24 6 -3 6 -15 0 -30 -5 -13
-6 -26 -2 -29 9 -5 8 -47 -1 -62 -3 -5 -2 -16 3 -24 5 -8 5 -21 0 -30 -5 -9
-5 -22 0 -30 5 -8 5 -21 1 -29 -9 -16 -7 -49 3 -58 3 -3 1 -14 -4 -24 -7 -12
-7 -20 0 -24 7 -4 7 -12 0 -25 -6 -11 -6 -21 -1 -25 6 -3 6 -17 1 -35 -5 -18
-5 -32 1 -35 5 -4 5 -14 -1 -25 -7 -13 -7 -21 0 -25 6 -4 7 -13 1 -23 -6 -11
-6 -24 0 -34 6 -10 5 -26 -1 -42 -5 -15 -6 -26 0 -26 5 0 5 -12 0 -30 -5 -18
-5 -30 0 -30 5 0 6 -10 2 -22 -9 -26 -8 -75 1 -84 3 -3 2 -17 -3 -30 -6 -14
-6 -24 0 -24 5 0 5 -12 1 -28 -5 -15 -4 -37 0 -50 5 -13 4 -22 -1 -22 -6 0 -6
-9 -1 -23 5 -13 5 -30 1 -38 -5 -8 -5 -21 0 -29 4 -7 5 -23 0 -35 -5 -12 -5
-28 0 -35 5 -7 4 -24 -1 -37 -5 -13 -5 -23 1 -23 5 0 5 -12 1 -28 -5 -15 -4
-37 0 -50 5 -13 4 -22 -1 -22 -6 0 -6 -9 -1 -23 5 -13 5 -30 1 -38 -5 -8 -5
-21 0 -29 4 -7 5 -23 0 -35 -5 -12 -5 -28 0 -35 5 -7 4 -24 -1 -37 -5 -13 -5
-23 1 -23 5 0 5 -12 1 -28 -5 -15 -4 -37 0 -50 5 -13 4 -22 -1 -22 -6 0 -6 -9
-1 -23 5 -13 5 -30 1 -37 -5 -8 -5 -21 -1 -29 5 -9 5 -25 1 -36 -4 -11 -4 -28
1 -37 6 -10 5 -19 -1 -23 -7 -4 -7 -12 0 -25 6 -10 7 -21 3 -23 -7 -4 -8 -62
-3 -77 1 -3 3 -10 4 -16 1 -11 76 -95 252 -283 34 -36 76 -82 94 -101 75 -82
224 -230 232 -230 4 0 8 -4 8 -8 0 -15 270 -277 288 -280 12 -2 115 97 312
298 162 165 297 305 298 310 2 6 8 10 13 10 5 0 26 19 48 42 40 44 93 98 801
818 602 612 937 956 1110 1140 45 48 221 237 252 271 49 54 157 175 175 195
30 35 110 127 131 152 11 13 35 42 54 65 18 22 41 49 51 59 9 10 17 20 17 23
0 3 16 22 35 42 19 20 35 40 35 44 0 4 6 14 13 21 7 7 28 33 47 58 19 25 38
50 43 55 4 6 35 48 67 95 33 47 63 90 67 95 12 15 46 67 59 90 6 11 35 58 63
105 28 47 59 102 68 123 9 20 20 37 25 37 4 0 8 6 8 14 0 8 13 40 29 72 34 70
81 188 81 203 0 6 4 11 8 11 5 0 9 6 9 13 0 6 13 53 28 102 14 50 28 98 30
108 2 10 6 26 9 35 3 9 8 33 11 52 3 19 10 50 15 69 5 19 7 38 4 42 -2 4 1 11
7 14 5 4 8 13 5 20 -2 7 -1 30 4 51 8 36 16 97 25 199 20 201 27 815 12 980
-9 100 -17 172 -23 205 -2 14 -6 43 -9 65 -3 22 -8 54 -12 70 -3 17 -7 39 -9
50 -8 62 -62 282 -94 385 -6 19 -13 42 -15 50 -16 63 -106 296 -160 417 -19
40 -34 74 -34 76 0 3 -67 131 -111 212 -44 80 -190 311 -212 335 -10 11 -18
22 -18 26 0 7 -164 220 -189 245 -9 8 -32 35 -51 59 -72 89 -340 352 -454 445
-27 22 -54 45 -60 50 -26 24 -146 115 -151 115 -4 0 -13 7 -22 16 -30 29 -286
196 -408 264 -123 69 -378 192 -495 238 -41 16 -84 33 -95 37 -11 4 -24 9 -30
11 -5 2 -62 21 -125 42 -109 37 -188 61 -255 78 -16 4 -34 9 -40 10 -22 7
-292 66 -318 69 -46 7 -102 15 -122 19 -11 2 -47 7 -80 10 -33 4 -73 10 -90
12 -34 6 -700 15 -706 10z"/>
</g>
</svg>
