<svg version="1.0" xmlns="http://www.w3.org/2000/svg" width="1301.333" height="1301.333" viewBox="0 0 976 976"><path d="M455.9.4c-.2.2-4 .6-8.4 1-13.6 1.2-38 5.1-50.5 8.2-3.6.8-7.6 1.8-9 2-1.4.3-5 1.2-8 2.1-3 .9-5.7 1.6-6 1.5-.3 0-1.2.4-2.1.9-.9.4-2.7 1-4 1.3-2.8.5-26.9 9-31.9 11.2-1.9.9-4.8 2.2-6.5 2.9-1.6.8-3.3 1.1-3.7.9-.4-.3-.8-.2-.8.3 0 .4-1.5 1.4-3.2 2.2-7.4 3.1-25 11.9-34.8 17.5-9.9 5.5-25.9 15.4-27 16.6-.3.3-1.3.9-2.2 1.5-7.4 4.4-31.1 22.6-41.8 32-7 6.2-32.8 32.2-38 38.5-3 3.6-5.8 6.7-6.1 7-1.3 1.1-14.8 18.9-17.9 23.5-1.9 2.7-3.6 5.2-3.9 5.5-1.2 1-8.4 12.5-8.2 12.9.2.2-.1.7-.7 1-1.1.7-10.5 16.4-12.4 20.6-.7 1.6-1.6 3.2-1.9 3.5-1 .7-16.9 34.1-17.5 36.5-.1.5-1.8 4.8-3.7 9.5-1.9 4.7-4.5 11.9-5.8 16-1.3 4.1-2.6 7.7-2.9 8-.3.3-.6.9-.7 1.5 0 .5-1.7 7-3.7 14.3-3.6 13.4-8.3 34.8-9.2 42.5-.3 2.3-.7 5.2-1 6.5-1.5 7.3-1.9 18-1.9 57.2 0 41.3.6 54.4 2.5 59.5.5 1.3.6 2.5.3 2.8-.3.3 0 2.8.6 5.4.6 2.6 1.3 5.9 1.5 7.3 2.9 16 11.3 47.8 14.8 55.5.4 1.1 1 2.9 1.2 4 .2 1.1 1.1 3.6 1.9 5.5.8 1.9 3.7 8.7 6.3 15 4.5 10.9 14.5 31.7 19.4 40.5 5.6 10 10.5 18 11.2 18.3.5.2.8.8.8 1.4 0 .9 10.2 16.4 14.7 22.3 1.3 1.6 2.7 3.4 3.1 4 .4.5 1.8 2.6 3.2 4.5 1.3 1.9 2.7 3.7 3 4 .3.3 3.2 3.9 6.5 8 13.1 16.2 34.7 36.2 46 42.5 7.1 4 9.4 4.1 11 .2 1.3-3.1 3.1-12.5 2.7-13.9-.1-.5.1-.8.5-.8.5 0 .8-1.7.8-3.8 0-2 .4-6.2.8-9.2 1-8 2.2-23.5 3.2-42 .4-5.8.8-13.7 1-17.5.4-7.4 1.4-35.5 2.1-62 .2-8.8.4-16.5.5-17 0-.6-.2-3.4-.3-6.3-.2-2.8-.1-5.2.3-5.2s.3-1.6-.1-3.5-.4-3.5.1-3.5.4-1.1-.1-2.4c-.5-1.3-.7-2.6-.5-2.8.3-.3.4-2.6.5-13.3 0-1.1 0-3.1-.1-4.5 0-1.4-.1-3-.1-3.5.9-53.9 1.3-67.9 2.7-94 .7-12.8 1.9-26.9 3-36.5.3-2.5.7-6.8 1-9.5.3-2.8.7-5.9.9-7.1.2-1.2.7-4.5 1.1-7.4.4-2.9.9-6.2 1.1-7.4.3-1.2.7-3.9 1-6.1.3-2.2.8-4.7 1-5.5.3-.8.8-2.6 1-3.9.3-1.3 1.2-5.1 2-8.5.8-3.4 1.7-7.5 2-9.1.3-1.7 1-3.4 1.5-4 .5-.5.9-1.7.9-2.7 0-4.2 14.1-37.7 16.2-38.6.4-.2.8-.8.8-1.4 0-1 6.6-11.6 7.9-12.8.3-.3 2.9-3.4 5.6-7 11.8-15.3 34-33.7 55.5-45.7 1.9-1.1 5.9-3.4 8.8-5.1 2.8-1.7 5.2-2.8 5.2-2.4 0 .4.4.2.8-.3 1.8-2.5 41.8-20.7 48.6-22.1 1.1-.2 4.7-1.2 8-2.3 5.3-1.8 9.1-2.8 17.1-4.6 10.5-2.4 19.2-3.9 23.3-3.9 1.7-.1 3.2-.3 3.2-.6 0-.9 10.1-1.4 30-1.4 25.5-.1 40.8 1.5 59.4 6.3 2.2.5 4.4.8 4.8.5.4-.3.8 0 .8.5 0 .6.8 1.1 1.9 1.1 4.8 0 30.8 9.7 44.6 16.7 19.1 9.7 22.2 11.7 40.1 25 10.6 7.9 27.3 23.3 34.9 32.4 7.2 8.6 13.9 17.4 17.9 23.4 2.5 3.8 5 7.5 5.5 8.1.5.6 2.6 4.2 4.6 8 2 3.8 4.5 8.4 5.6 10.1 1 1.8 1.6 3.3 1.3 3.3-.3 0 .4 1.3 1.5 2.9 1.2 1.6 2.1 3.4 2.1 3.9 0 .6 1.3 3.9 2.8 7.4 1.6 3.4 3 6.7 3.2 7.3.1.5.4 1.4.6 2 3.4 10.3 4.6 14.3 6.4 21.1 1.1 4.5 2.3 9.2 2.5 10.5.9 4.4 1.6 8.4 2 10.9.2 1.4.6 3.8.8 5.5 1.2 6.9 1.7 12.7 2.2 24.9.3 7 .8 13.2 1.1 13.7.3.5.2.9-.3.9-.4 0-.8 4.4-.9 9.8-.1 10.8-1.4 26.5-2.9 34.2-.3 1.4-.8 4.3-1.1 6.5-.3 2.2-1 5.8-1.5 8-.6 2.2-1.1 5.1-1.3 6.5-.2 1.4-1.1 5.1-2 8.2-.9 3.2-1.7 6.1-1.7 6.5-.3 2-8.5 24.4-10.7 29.3-1.5 3-2.6 5.7-2.7 6-.3 1.9-11.3 22-13.3 24.2-.8 1-1.1 1.8-.6 1.8.5 0 .5.4-.1.8-1.2.8-5.5 6.9-5.5 7.7 0 .6-8.5 11.6-13 16.9-8.9 10.5-19.8 21.6-27.7 28.2-2.5 2.1-5.2 4.5-5.9 5.1-.7.7-1.5 1.3-1.8 1.3-.4 0-2 1.2-3.7 2.7-1.7 1.5-6.9 5.4-11.7 8.5-4.8 3.2-9.4 6.3-10.2 6.8-6.2 4.2-34.1 17.8-45.5 22.3-4.9 1.9-15.7 5.6-24 8.1-35 10.9-45.4 13.8-46.4 13.2-.8-.5-1.4-2.8-2.7-10.1-1.1-6.5-2.4-25.5-2.8-43.7-.3-8.1-.7-15.2-1.1-15.8-.3-.5-.1-1 .5-1s.9-.4.6-.9c-1.1-1.7-.4-41.1.9-52.6 1.4-13.4 6.5-34.9 8.5-36.5.4-.3 1.9-2.9 3.5-5.8 1.5-2.8 3.2-5.2 3.7-5.2.4 0 .8-.5.8-1.1 0-.6.6-1.6 1.3-2.3.6-.7 3.3-3.5 5.8-6.2 3.9-4.2 11.7-11.2 18.3-16.4 4.5-3.6 16-15.6 19.9-20.8 2.3-3.1 4.6-6 5-6.3.5-.3.8-.9.8-1.3-.1-.3.6-2 1.5-3.7 7-13.6 9.2-27.9 6.3-41.9-1.3-6.1-5.8-18.2-7.2-19.1-.5-.3-.9-1-.9-1.5-.1-1.3-4.5-8.2-9.7-14.9-5.4-7-18.1-19.7-25.5-25.4-6.5-5-18.2-12.1-19.9-12.1-.7 0-1.7-.4-2.2-.8-3.7-3.2-22.1-4.8-31.4-2.8-15.5 3.3-40.9 22.2-54 40.1-4.1 5.7-8.2 13.7-9.6 18.7-.2.5-.3.9-.5 1-.1.2-.3 1.1-.5 2-.2.9-.8 3.2-1.4 5-2.5 7.6-5.4 29.7-6.6 48.8-.2 4.1-.7 11.3-.9 16-1.1 16.9-2.9 94.9-2.6 107.5 0 .5.1 4.8.3 9.5.2 4.7-.1 9.3-.5 10.2-.5 1-.5 1.8-.1 1.8.5 0 .8 1.2.7 2.8-.1 1.5-.3 2.7-.4 2.7-.1 0-.2 1.7-.3 3.8-.1 2 .1 3.7.4 3.7.4 0 .4 1.5 0 3.2-.4 1.8-.4 4.4-.1 5.8.4 1.4.3 3.5-.1 4.8-.5 1.3-.5 2.2.1 2.2s.6.9 0 2.4c-.5 1.3-.6 2.7-.3 3 .9.9 1 5.9.1 7.8-.5.9-.4 2 .2 2.3.6.4.7 1.3.1 2.4-.6 1-.6 2.3-.1 3.1.5.8.5 2.1.1 2.9-.9 1.6-.7 4.9.3 5.8.3.3.1 1.4-.4 2.4-.7 1.2-.7 2 0 2.4.7.4.7 1.2 0 2.5-.6 1.1-.6 2.1-.1 2.5.6.3.6 1.7.1 3.5s-.5 3.2.1 3.5c.5.4.5 1.4-.1 2.5-.7 1.3-.7 2.1 0 2.5.6.4.7 1.3.1 2.3-.6 1.1-.6 2.4 0 3.4s.5 2.6-.1 4.2c-.5 1.5-.6 2.6 0 2.6.5 0 .5 1.2 0 3s-.5 3 0 3c.6 0 .5 1.1 0 2.6-.7 1.6-.7 3.2 0 4.3.5 1 .6 2.1.3 2.5-.8.7-.7 11.6.1 12.4.3.2.1 1.3-.4 2.3-.7 1.1-.7 2 0 2.4.6.3.6 1.5 0 3-.5 1.3-.6 2.6-.2 2.9.9.5.8 4.7-.1 6.2-.3.5-.2 1.6.3 2.4.5.8.5 2.1 0 3-.5.9-.5 2.2 0 3 .5.8.5 2.1.1 2.9-.9 1.6-.7 4.9.3 5.8.3.3.1 1.4-.4 2.4-.7 1.2-.7 2 0 2.4.7.4.7 1.2 0 2.5-.6 1.1-.6 2.1-.1 2.5.6.3.6 1.7.1 3.5s-.5 3.2.1 3.5c.5.4.5 1.4-.1 2.5-.7 1.3-.7 2.1 0 2.5.6.4.7 1.3.1 2.3-.6 1.1-.6 2.4 0 3.4s.5 2.6-.1 4.2c-.5 1.5-.6 2.6 0 2.6.5 0 .5 1.2 0 3s-.5 3 0 3 .6 1 .2 2.2c-.9 2.6-.8 7.5.1 8.4.3.3.2 1.7-.3 3-.6 1.4-.6 2.4 0 2.4.5 0 .5 1.2.1 2.8-.5 1.5-.4 3.7 0 5 .5 1.3.4 2.2-.1 2.2-.6 0-.6.9-.1 2.3.5 1.3.5 3 .1 3.8-.5.8-.5 2.1 0 2.9.4.7.5 2.3 0 3.5-.5 1.2-.5 2.8 0 3.5.5.7.4 2.4-.1 3.7-.5 1.3-.5 2.3.1 2.3.5 0 .5 1.2.1 2.8-.5 1.5-.4 3.7 0 5 .5 1.3.4 2.2-.1 2.2-.6 0-.6.9-.1 2.3.5 1.3.5 3 .1 3.8-.5.8-.5 2.1 0 2.9.4.7.5 2.3 0 3.5-.5 1.2-.5 2.8 0 3.5.5.7.4 2.4-.1 3.7-.5 1.3-.5 2.3.1 2.3.5 0 .5 1.2.1 2.8-.5 1.5-.4 3.7 0 5 .5 1.3.4 2.2-.1 2.2-.6 0-.6.9-.1 2.3.5 1.3.5 3 .1 3.7-.5.8-.5 2.1-.1 2.9.5.9.5 2.5.1 3.6s-.4 2.8.1 3.7c.6 1 .5 1.9-.1 2.3-.7.4-.7 1.2 0 2.5.6 1 .7 2.1.3 2.3-.7.4-.8 6.2-.3 7.7.1.3.3 1 .4 1.6.1 1.1 7.6 9.5 25.2 28.3 3.4 3.6 7.6 8.2 9.4 10.1 7.5 8.2 22.4 23 23.2 23 .4 0 .8.4.8.8 0 1.5 27 27.7 28.8 28 1.2.2 11.5-9.7 31.2-29.8 16.2-16.5 29.7-30.5 29.8-31 .2-.6.8-1 1.3-1s2.6-1.9 4.8-4.2c4-4.4 9.3-9.8 80.1-81.8 60.2-61.2 93.7-95.6 111-114 4.5-4.8 22.1-23.7 25.2-27.1 4.9-5.4 15.7-17.5 17.5-19.5 3-3.5 11-12.7 13.1-15.2 1.1-1.3 3.5-4.2 5.4-6.5 1.8-2.2 4.1-4.9 5.1-5.9.9-1 1.7-2 1.7-2.3 0-.3 1.6-2.2 3.5-4.2s3.5-4 3.5-4.4c0-.4.6-1.4 1.3-2.1.7-.7 2.8-3.3 4.7-5.8 1.9-2.5 3.8-5 4.3-5.5.4-.6 3.5-4.8 6.7-9.5 3.3-4.7 6.3-9 6.7-9.5 1.2-1.5 4.6-6.7 5.9-9 .6-1.1 3.5-5.8 6.3-10.5s5.9-10.2 6.8-12.3c.9-2 2-3.7 2.5-3.7.4 0 .8-.6.8-1.4 0-.8 1.3-4 2.9-7.2 3.4-7 8.1-18.8 8.1-20.3 0-.6.4-1.1.8-1.1.5 0 .9-.6.9-1.3 0-.6 1.3-5.3 2.8-10.2 1.4-5 2.8-9.8 3-10.8.2-1 .6-2.6.9-3.5.3-.9.8-3.3 1.1-5.2.3-1.9 1-5 1.5-6.9.5-1.9.7-3.8.4-4.2-.2-.4.1-1.1.7-1.4.5-.4.8-1.3.5-2-.2-.7-.1-3 .4-5.1.8-3.6 1.6-9.7 2.5-19.9 2-20.1 2.7-81.5 1.2-98-.9-10-1.7-17.2-2.3-20.5-.2-1.4-.6-4.3-.9-6.5-.3-2.2-.8-5.4-1.2-7-.3-1.7-.7-3.9-.9-5-.8-6.2-6.2-28.2-9.4-38.5-.6-1.9-1.3-4.2-1.5-5-1.6-6.3-10.6-29.6-16-41.7-1.9-4-3.4-7.4-3.4-7.6 0-.3-6.7-13.1-11.1-21.2-4.4-8-19-31.1-21.2-33.5-1-1.1-1.8-2.2-1.8-2.6 0-.7-16.4-22-18.9-24.5-.9-.8-3.2-3.5-5.1-5.9-7.2-8.9-34-35.2-45.4-44.5-2.7-2.2-5.4-4.5-6-5C747 91.1 735 82 734.5 82c-.4 0-1.3-.7-2.2-1.6-3-2.9-28.6-19.6-40.8-26.4-12.3-6.9-37.8-19.2-49.5-23.8-4.1-1.6-8.4-3.3-9.5-3.7-1.1-.4-2.4-.9-3-1.1-.5-.2-6.2-2.1-12.5-4.2-10.9-3.7-18.8-6.1-25.5-7.8-1.6-.4-3.4-.9-4-1-2.2-.7-29.2-6.6-31.8-6.9-4.6-.7-10.2-1.5-12.2-1.9-1.1-.2-4.7-.7-8-1-3.3-.4-7.3-1-9-1.2-3.4-.6-70-1.5-70.6-1z"/></svg>