<!DOCTYPE svg PUBLIC "-//W3C//DTD SVG 20010904//EN" "http://www.w3.org/TR/2001/REC-SVG-20010904/DTD/svg10.dtd">
<svg version="1.0" xmlns="http://www.w3.org/2000/svg" width="51px" height="61px" viewBox="0 0 510 610" preserveAspectRatio="xMidYMid meet">
<g id="layer101" fill="#ed6950" stroke="none">
 <path d="M227 583 l-27 -29 0 -162 c0 -149 2 -164 20 -182 25 -25 45 -25 70 0 27 27 25 54 -5 78 -21 17 -25 28 -25 71 0 28 2 51 4 51 1 0 18 -5 37 -11 69 -24 109 -80 109 -155 0 -117 -122 -189 -229 -134 -68 34 -81 69 -81 208 0 66 -4 123 -8 126 -4 2 -21 -11 -37 -31 -102 -128 -60 -314 87 -387 165 -82 367 38 368 219 0 96 -13 120 -139 248 l-116 118 -28 -28z"/>
 </g>

</svg>