<!DOCTYPE svg PUBLIC "-//W3C//DTD SVG 20010904//EN" "http://www.w3.org/TR/2001/REC-SVG-20010904/DTD/svg10.dtd">
<svg version="1.0" xmlns="http://www.w3.org/2000/svg" width="1000px" height="998px" viewBox="0 0 10000 9980" preserveAspectRatio="xMidYMid meet">
<g id="layer101" fill="#ec9f28" stroke="none">
 <path d="M9044 9965 c-123 -28 -246 -88 -341 -167 -48 -40 -653 -696 -653 -708 0 -3 231 -236 513 -517 l512 -513 372 340 c250 228 387 361 417 404 216 302 174 698 -102 958 -89 84 -181 138 -302 179 -84 28 -110 32 -225 35 -86 2 -151 -1 -191 -11z"/>
 <path d="M7303 8278 c-318 -348 -792 -867 -1052 -1153 -261 -286 -487 -534 -503 -551 l-28 -30 102 -81 c225 -176 449 -401 627 -628 39 -49 75 -90 80 -90 5 0 540 486 1191 1079 l1182 1079 -503 503 c-277 277 -507 504 -511 504 -4 0 -267 -285 -585 -632z"/>
 <path d="M3225 6974 c-181 -19 -322 -39 -447 -64 -1182 -242 -2161 -1089 -2574 -2227 -83 -229 -145 -488 -181 -753 -26 -192 -26 -668 0 -860 100 -733 392 -1370 874 -1905 559 -619 1303 -1007 2153 -1122 192 -26 668 -26 860 0 814 111 1512 459 2068 1032 596 613 946 1421 980 2263 36 877 -228 1681 -776 2362 -111 137 -376 400 -524 517 -506 404 -1079 647 -1743 738 -115 16 -591 29 -690 19z m664 -933 c387 -67 712 -195 1020 -402 524 -352 890 -859 1056 -1464 211 -771 44 -1619 -444 -2245 -357 -459 -843 -780 -1401 -924 -228 -59 -334 -70 -630 -71 -313 0 -402 10 -656 75 -1037 264 -1808 1164 -1915 2234 -15 150 -6 504 15 641 73 458 258 877 543 1230 97 121 306 326 423 417 343 265 745 439 1171 507 179 29 181 29 449 26 195 -2 270 -7 369 -24z"/>
 <path d="M5274 3521 c-48 -22 -74 -68 -74 -133 0 -23 -7 -88 -15 -143 -116 -771 -727 -1360 -1509 -1456 -137 -17 -401 -6 -531 21 -140 30 -314 89 -433 149 -126 63 -165 67 -218 18 -47 -43 -56 -97 -22 -147 18 -27 52 -49 146 -97 616 -309 1375 -257 1960 134 488 327 806 858 863 1445 10 103 9 120 -6 151 -31 65 -95 88 -161 58z"/>
 </g>

</svg>